<svg width="148" height="148" viewBox="0 0 148 148" fill="none" xmlns="http://www.w3.org/2000/svg">
<g clip-path="url(#clip0_14_265)">
<path d="M74 147.634C114.667 147.634 147.634 114.667 147.634 74C147.634 33.3332 114.667 0.366211 74 0.366211C33.3332 0.366211 0.366211 33.3332 0.366211 74C0.366211 114.667 33.3332 147.634 74 147.634Z" fill="black" stroke="#333333" stroke-miterlimit="10"/>
<path d="M73.0475 97.7314C86.2148 97.7314 96.8889 87.0573 96.8889 73.89C96.8889 60.7228 86.2148 50.0486 73.0475 50.0486C59.8802 50.0486 49.2061 60.7228 49.2061 73.89C49.2061 87.0573 59.8802 97.7314 73.0475 97.7314Z" fill="#A31621" stroke="black" stroke-width="2" stroke-miterlimit="10"/>
<path d="M73.0404 103.137C89.1324 103.137 102.177 90.0918 102.177 73.9999C102.177 57.9079 89.1324 44.8628 73.0404 44.8628C56.9484 44.8628 43.9033 57.9079 43.9033 73.9999C43.9033 90.0918 56.9484 103.137 73.0404 103.137Z" stroke="#333333" stroke-miterlimit="10"/>
<path d="M73.0406 108.177C91.9157 108.177 107.217 92.8752 107.217 74.0001C107.217 55.125 91.9157 39.8237 73.0406 39.8237C54.1655 39.8237 38.8643 55.125 38.8643 74.0001C38.8643 92.8752 54.1655 108.177 73.0406 108.177Z" stroke="#333333" stroke-miterlimit="10"/>
<path d="M114.533 78.6291C116.962 56.8674 100.352 37.1519 77.432 34.5932C54.5125 32.0345 33.9631 47.6016 31.5336 69.3633C29.1042 91.125 45.7147 110.841 68.6343 113.399C91.5538 115.958 112.103 100.391 114.533 78.6291Z" stroke="#333333" stroke-miterlimit="10"/>
<path d="M73.0403 121.265C100.111 121.265 122.056 100.104 122.056 74C122.056 47.896 100.111 26.7346 73.0403 26.7346C45.9696 26.7346 24.0244 47.896 24.0244 74C24.0244 100.104 45.9696 121.265 73.0403 121.265Z" stroke="#333333" stroke-miterlimit="10"/>
<path d="M73.041 132.223C107.256 132.223 134.992 106.106 134.992 73.8901C134.992 41.6738 107.256 15.5574 73.041 15.5574C38.8263 15.5574 11.0898 41.6738 11.0898 73.8901C11.0898 106.106 38.8263 132.223 73.041 132.223Z" stroke="#333333" stroke-miterlimit="10"/>
<path d="M73.0407 127.352C104.335 127.352 129.703 103.466 129.703 74C129.703 44.5345 104.335 20.6479 73.0407 20.6479C41.7467 20.6479 16.3779 44.5345 16.3779 74C16.3779 103.466 41.7467 127.352 73.0407 127.352Z" stroke="#333333" stroke-miterlimit="10"/>
<path d="M73.0407 77.7867C75.1321 77.7867 76.8275 76.0913 76.8275 73.9999C76.8275 71.9085 75.1321 70.2131 73.0407 70.2131C70.9493 70.2131 69.2539 71.9085 69.2539 73.9999C69.2539 76.0913 70.9493 77.7867 73.0407 77.7867Z" fill="white" stroke="white" stroke-miterlimit="10"/>
</g>
<defs>
<clipPath id="clip0_14_265">
<rect width="148" height="148" fill="white"/>
</clipPath>
</defs>
</svg>
